<?xml version="1.0" standalone="no"?>
<!DOCTYPE svg PUBLIC "-//W3C//DTD SVG 20010904//EN"
 "http://www.w3.org/TR/2001/REC-SVG-20010904/DTD/svg10.dtd">
<svg version="1.0" xmlns="http://www.w3.org/2000/svg"
 width="512.000000pt" height="512.000000pt" viewBox="0 0 512.000000 512.000000"
 preserveAspectRatio="xMidYMid meet">
<metadata>
Created by potrace 1.14, written by Peter Selinger 2001-2017
</metadata>
<g transform="translate(0.000000,512.000000) scale(0.100000,-0.100000)"
fill="#000000" stroke="none">
<path d="M2652 4969 c-125 -22 -297 -117 -396 -217 l-48 -50 -57 20 c-74 26
-177 21 -247 -12 -69 -33 -154 -122 -192 -200 -48 -98 -65 -191 -65 -365 -1
-160 15 -273 59 -414 23 -74 23 -76 5 -96 -72 -79 -76 -194 -9 -270 l31 -36
-7 -177 c-9 -218 -22 -445 -37 -620 l-12 -132 -45 -58 c-90 -114 -107 -171
-236 -752 -35 -162 -74 -345 -87 -407 l-22 -112 -166 -93 -166 -92 -145 2
c-133 2 -143 1 -118 -13 14 -8 37 -32 50 -52 23 -38 23 -41 21 -297 -3 -299
-6 -314 -84 -354 l-44 -24 107 5 c100 4 120 9 316 76 115 39 214 71 220 71 5
0 13 -12 17 -27 10 -43 42 -80 88 -102 43 -21 48 -21 1177 -21 l1134 0 44 21
c45 22 78 64 89 112 3 15 8 27 12 27 4 0 108 -34 231 -75 197 -66 237 -76 320
-81 l95 -6 -44 23 c-78 41 -81 56 -84 355 -2 248 -1 260 19 292 12 19 34 42
50 53 l29 20 -135 -2 -135 -1 -155 87 c-85 48 -160 92 -166 99 -6 6 -17 40
-23 76 -23 123 -113 535 -168 770 -61 260 -92 341 -167 428 -25 30 -46 57 -46
61 0 4 -13 95 -30 201 -30 202 -55 422 -65 595 l-6 100 41 19 c56 25 92 81 98
152 6 68 -9 105 -60 148 l-39 34 31 61 c67 134 120 343 120 476 0 82 -21 192
-54 279 -87 230 -293 416 -531 480 -74 20 -242 28 -313 15z m-446 -675 c54
-210 211 -398 419 -501 132 -66 297 -106 488 -119 l107 -7 0 -96 c-1 -200 -54
-334 -185 -466 -129 -130 -242 -181 -420 -192 -138 -8 -231 8 -334 58 -142 67
-237 159 -304 293 -67 132 -80 256 -52 462 29 206 69 339 142 467 32 57 114
168 121 162 1 -1 9 -29 18 -61z m379 -1497 l250 -42 3 -32 c3 -31 6 -33 100
-64 53 -17 100 -35 104 -38 11 -10 -18 -113 -48 -173 -32 -62 -110 -147 -173
-187 -153 -98 -370 -96 -525 3 -104 67 -189 187 -215 304 -9 42 -9 43 27 57
19 9 73 27 119 41 l83 25 0 75 c0 53 4 74 13 73 6 0 125 -19 262 -42z m135
-1004 c86 -50 58 -194 -41 -209 l-39 -7 0 -53 c0 -30 3 -54 8 -54 37 0 211
-33 267 -51 400 -124 706 -508 732 -921 l6 -88 -1092 0 -1091 0 0 54 c0 30 7
90 15 134 42 223 141 410 297 561 176 170 358 262 585 296 54 8 101 15 106 15
4 0 7 24 7 54 l0 53 -39 7 c-55 9 -91 53 -91 113 0 38 5 50 34 79 l34 34 137
0 c110 0 142 -3 165 -17z"/>
<path d="M2312 3508 c-46 -23 -37 -101 13 -114 16 -4 34 0 50 10 33 22 35 78
3 100 -26 18 -34 19 -66 4z"/>
<path d="M2783 3510 c-12 -5 -25 -21 -29 -35 -15 -60 41 -104 91 -71 33 22 35
78 3 100 -25 18 -33 19 -65 6z"/>
</g>
</svg>
