<svg id="visual" viewBox="0 0 960 540" width="960" height="540" xmlns="http://www.w3.org/2000/svg" xmlns:xlink="http://www.w3.org/1999/xlink" version="1.1"><rect x="0" y="0" width="960" height="540" fill="#F5F5F5"></rect><defs><linearGradient id="grad1_0" x1="43.8%" y1="0%" x2="100%" y2="100%"><stop offset="14.444444444444446%" stop-color="#586d78" stop-opacity="1"></stop><stop offset="85.55555555555554%" stop-color="#586d78" stop-opacity="1"></stop></linearGradient></defs><defs><linearGradient id="grad1_1" x1="43.8%" y1="0%" x2="100%" y2="100%"><stop offset="14.444444444444446%" stop-color="#586d78" stop-opacity="1"></stop><stop offset="85.55555555555554%" stop-color="#f5f5f5" stop-opacity="1"></stop></linearGradient></defs><defs><linearGradient id="grad2_0" x1="0%" y1="0%" x2="56.3%" y2="100%"><stop offset="14.444444444444446%" stop-color="#586d78" stop-opacity="1"></stop><stop offset="85.55555555555554%" stop-color="#586d78" stop-opacity="1"></stop></linearGradient></defs><defs><linearGradient id="grad2_1" x1="0%" y1="0%" x2="56.3%" y2="100%"><stop offset="14.444444444444446%" stop-color="#f5f5f5" stop-opacity="1"></stop><stop offset="85.55555555555554%" stop-color="#586d78" stop-opacity="1"></stop></linearGradient></defs><g transform="translate(960, 0)"><path d="M0 297C-53.4 290 -106.7 283.1 -148.5 257.2C-190.3 231.3 -220.5 186.5 -243.4 140.5C-266.2 94.5 -281.6 47.2 -297 0L0 0Z" fill="#a4afb5"></path><path d="M0 148.5C-26.7 145 -53.4 141.5 -74.2 128.6C-95.1 115.7 -110.3 93.3 -121.7 70.3C-133.1 47.2 -140.8 23.6 -148.5 0L0 0Z" fill="#586d78"></path></g><g transform="translate(0, 540)"><path d="M0 -297C24.3 -241.9 48.6 -186.7 97.5 -168.9C146.4 -151 219.9 -170.4 257.2 -148.5C294.6 -126.6 295.8 -63.3 297 0L0 0Z" fill="#a4afb5"></path><path d="M0 -148.5C12.2 -120.9 24.3 -93.4 48.7 -84.4C73.2 -75.5 109.9 -85.2 128.6 -74.3C147.3 -63.3 147.9 -31.6 148.5 0L0 0Z" fill="#586d78"></path></g></svg>