<svg id="visual" viewBox="0 0 420 960" width="420" height="960" xmlns="http://www.w3.org/2000/svg" xmlns:xlink="http://www.w3.org/1999/xlink" version="1.1"><rect x="0" y="0" width="420" height="960" fill="#F5F5F5"></rect><defs><linearGradient id="grad1_0" x1="0%" y1="0%" x2="100%" y2="100%"><stop offset="30%" stop-color="#586d78" stop-opacity="1"></stop><stop offset="70%" stop-color="#586d78" stop-opacity="1"></stop></linearGradient></defs><defs><linearGradient id="grad1_1" x1="0%" y1="0%" x2="100%" y2="100%"><stop offset="30%" stop-color="#586d78" stop-opacity="1"></stop><stop offset="70%" stop-color="#f5f5f5" stop-opacity="1"></stop></linearGradient></defs><defs><linearGradient id="grad2_0" x1="0%" y1="0%" x2="100%" y2="100%"><stop offset="30%" stop-color="#586d78" stop-opacity="1"></stop><stop offset="70%" stop-color="#586d78" stop-opacity="1"></stop></linearGradient></defs><defs><linearGradient id="grad2_1" x1="0%" y1="0%" x2="100%" y2="100%"><stop offset="30%" stop-color="#f5f5f5" stop-opacity="1"></stop><stop offset="70%" stop-color="#586d78" stop-opacity="1"></stop></linearGradient></defs><g transform="translate(420, 0)"><path d="M0 231C-42.1 226 -84.3 220.9 -115.5 200.1C-146.7 179.2 -167 142.5 -184.5 106.5C-201.9 70.5 -216.4 35.3 -231 0L0 0Z" fill="#a4afb5"></path><path d="M0 115.5C-21.1 113 -42.1 110.5 -57.7 100C-73.4 89.6 -83.5 71.2 -92.2 53.3C-100.9 35.3 -108.2 17.6 -115.5 0L0 0Z" fill="#586d78"></path></g><g transform="translate(0, 960)"><path d="M0 -231C30.5 -208.1 60.9 -185.3 97.5 -168.9C134.1 -152.5 176.8 -142.6 200.1 -115.5C223.3 -88.4 227.2 -44.2 231 0L0 0Z" fill="#a4afb5"></path><path d="M0 -115.5C15.2 -104.1 30.5 -92.6 48.7 -84.4C67 -76.2 88.4 -71.3 100 -57.8C111.7 -44.2 113.6 -22.1 115.5 0L0 0Z" fill="#586d78"></path></g></svg>