<svg id="visual" viewBox="0 0 450 900" width="450" height="900" xmlns="http://www.w3.org/2000/svg" xmlns:xlink="http://www.w3.org/1999/xlink" version="1.1"><rect x="0" y="0" width="450" height="900" fill="#f5f5f5"></rect><defs><linearGradient id="grad1_0" x1="0%" y1="0%" x2="100%" y2="100%"><stop offset="30%" stop-color="#e6c5e9" stop-opacity="1"></stop><stop offset="70%" stop-color="#e6c5e9" stop-opacity="1"></stop></linearGradient></defs><defs><linearGradient id="grad1_1" x1="0%" y1="0%" x2="100%" y2="100%"><stop offset="30%" stop-color="#e6c5e9" stop-opacity="1"></stop><stop offset="70%" stop-color="#eeddef" stop-opacity="1"></stop></linearGradient></defs><defs><linearGradient id="grad1_2" x1="0%" y1="0%" x2="100%" y2="100%"><stop offset="30%" stop-color="#f5f5f5" stop-opacity="1"></stop><stop offset="70%" stop-color="#eeddef" stop-opacity="1"></stop></linearGradient></defs><defs><linearGradient id="grad2_0" x1="0%" y1="0%" x2="100%" y2="100%"><stop offset="30%" stop-color="#e6c5e9" stop-opacity="1"></stop><stop offset="70%" stop-color="#e6c5e9" stop-opacity="1"></stop></linearGradient></defs><defs><linearGradient id="grad2_1" x1="0%" y1="0%" x2="100%" y2="100%"><stop offset="30%" stop-color="#eeddef" stop-opacity="1"></stop><stop offset="70%" stop-color="#e6c5e9" stop-opacity="1"></stop></linearGradient></defs><defs><linearGradient id="grad2_2" x1="0%" y1="0%" x2="100%" y2="100%"><stop offset="30%" stop-color="#eeddef" stop-opacity="1"></stop><stop offset="70%" stop-color="#f5f5f5" stop-opacity="1"></stop></linearGradient></defs><g transform="translate(450, 0)"><path d="M0 247.5C-39.6 235 -79.2 222.6 -117.5 203.5C-155.8 184.4 -192.9 158.8 -214.3 123.8C-235.8 88.7 -241.6 44.4 -247.5 0L0 0Z" fill="#f1e9f2"></path><path d="M0 165C-26.4 156.7 -52.8 148.4 -78.3 135.7C-103.9 123 -128.6 105.8 -142.9 82.5C-157.2 59.2 -161.1 29.6 -165 0L0 0Z" fill="#ead1ec"></path><path d="M0 82.5C-13.2 78.3 -26.4 74.2 -39.2 67.8C-51.9 61.5 -64.3 52.9 -71.4 41.3C-78.6 29.6 -80.5 14.8 -82.5 0L0 0Z" fill="#e6c5e9"></path></g><g transform="translate(0, 900)"><path d="M0 -247.5C40.7 -236.9 81.3 -226.3 119.5 -207C157.7 -187.7 193.4 -159.7 214.3 -123.8C235.3 -87.8 241.4 -43.9 247.5 0L0 0Z" fill="#f1e9f2"></path><path d="M0 -165C27.1 -157.9 54.2 -150.9 79.7 -138C105.1 -125.1 128.9 -106.5 142.9 -82.5C156.8 -58.5 160.9 -29.3 165 0L0 0Z" fill="#ead1ec"></path><path d="M0 -82.5C13.6 -79 27.1 -75.4 39.8 -69C52.6 -62.6 64.5 -53.2 71.4 -41.3C78.4 -29.3 80.5 -14.6 82.5 0L0 0Z" fill="#e6c5e9"></path></g></svg>