<svg id="visual" viewBox="0 0 960 540" width="960" height="540" xmlns="http://www.w3.org/2000/svg" xmlns:xlink="http://www.w3.org/1999/xlink" version="1.1"><rect x="0" y="0" width="960" height="540" fill="#f5f5f5"></rect><defs><linearGradient id="grad1_0" x1="43.8%" y1="0%" x2="100%" y2="100%"><stop offset="14.444444444444446%" stop-color="#e6c5e9" stop-opacity="1"></stop><stop offset="85.55555555555554%" stop-color="#e6c5e9" stop-opacity="1"></stop></linearGradient></defs><defs><linearGradient id="grad1_1" x1="43.8%" y1="0%" x2="100%" y2="100%"><stop offset="14.444444444444446%" stop-color="#e6c5e9" stop-opacity="1"></stop><stop offset="85.55555555555554%" stop-color="#eeddef" stop-opacity="1"></stop></linearGradient></defs><defs><linearGradient id="grad1_2" x1="43.8%" y1="0%" x2="100%" y2="100%"><stop offset="14.444444444444446%" stop-color="#f5f5f5" stop-opacity="1"></stop><stop offset="85.55555555555554%" stop-color="#eeddef" stop-opacity="1"></stop></linearGradient></defs><defs><linearGradient id="grad2_0" x1="0%" y1="0%" x2="56.3%" y2="100%"><stop offset="14.444444444444446%" stop-color="#e6c5e9" stop-opacity="1"></stop><stop offset="85.55555555555554%" stop-color="#e6c5e9" stop-opacity="1"></stop></linearGradient></defs><defs><linearGradient id="grad2_1" x1="0%" y1="0%" x2="56.3%" y2="100%"><stop offset="14.444444444444446%" stop-color="#eeddef" stop-opacity="1"></stop><stop offset="85.55555555555554%" stop-color="#e6c5e9" stop-opacity="1"></stop></linearGradient></defs><defs><linearGradient id="grad2_2" x1="0%" y1="0%" x2="56.3%" y2="100%"><stop offset="14.444444444444446%" stop-color="#eeddef" stop-opacity="1"></stop><stop offset="85.55555555555554%" stop-color="#f5f5f5" stop-opacity="1"></stop></linearGradient></defs><g transform="translate(960, 0)"><path d="M0 297C-52.8 289.7 -105.6 282.4 -148.5 257.2C-191.4 232 -224.6 188.9 -247.7 143C-270.8 97.1 -283.9 48.6 -297 0L0 0Z" fill="#f1e9f2"></path><path d="M0 198C-35.2 193.1 -70.4 188.3 -99 171.5C-127.6 154.7 -149.7 125.9 -165.1 95.3C-180.5 64.8 -189.3 32.4 -198 0L0 0Z" fill="#ead1ec"></path><path d="M0 99C-17.6 96.6 -35.2 94.1 -49.5 85.7C-63.8 77.3 -74.9 63 -82.6 47.7C-90.3 32.4 -94.6 16.2 -99 0L0 0Z" fill="#e6c5e9"></path></g><g transform="translate(0, 540)"><path d="M0 -297C48 -283 96.1 -268.9 142 -246C187.9 -223 231.7 -191 257.2 -148.5C282.7 -106 289.8 -53 297 0L0 0Z" fill="#f1e9f2"></path><path d="M0 -198C32 -188.6 64.1 -179.3 94.7 -164C125.3 -148.6 154.5 -127.3 171.5 -99C188.5 -70.7 193.2 -35.3 198 0L0 0Z" fill="#ead1ec"></path><path d="M0 -99C16 -94.3 32 -89.6 47.3 -82C62.6 -74.3 77.2 -63.7 85.7 -49.5C94.2 -35.3 96.6 -17.7 99 0L0 0Z" fill="#e6c5e9"></path></g></svg>