<svg id="visual" viewBox="0 0 960 540" width="960" height="540" xmlns="http://www.w3.org/2000/svg" xmlns:xlink="http://www.w3.org/1999/xlink" version="1.1"><rect x="0" y="0" width="960" height="540" fill="#f5f5f5"></rect><defs><linearGradient id="grad1_0" x1="43.8%" y1="0%" x2="100%" y2="100%"><stop offset="14.444444444444446%" stop-color="#f5f5f5" stop-opacity="1"></stop><stop offset="85.55555555555554%" stop-color="#f5f5f5" stop-opacity="1"></stop></linearGradient></defs><defs><linearGradient id="grad2_0" x1="0%" y1="0%" x2="56.3%" y2="100%"><stop offset="14.444444444444446%" stop-color="#f5f5f5" stop-opacity="1"></stop><stop offset="85.55555555555554%" stop-color="#f5f5f5" stop-opacity="1"></stop></linearGradient></defs><g transform="translate(960, 0)"><path d="M0 243C-15.3 195.8 -30.6 148.7 -57.4 138.6C-84.2 128.5 -122.5 155.4 -154.1 154.1C-185.8 152.9 -210.8 123.4 -224.5 93C-238.2 62.6 -240.6 31.3 -243 0L0 0Z" fill="#333333"></path></g><g transform="translate(0, 540)"><path d="M0 -243C35.3 -244.4 70.6 -245.9 93 -224.5C115.4 -203.1 124.9 -158.9 128 -128C131.1 -97.1 127.9 -79.6 146 -60.5C164.1 -41.4 203.5 -20.7 243 0L0 0Z" fill="#333333"></path></g></svg>